<?xml version="1.0" encoding="UTF-8" standalone="no"?>
<svg
   xmlns="http://www.w3.org/2000/svg"
   version="1.1"
   width="734.828"
   height="848.508"
   viewBox="0 0 734.828 848.508">
  <polygon
    points="367.412,0 734.828,212.127 734.828,636.381 367.412,848.508 0,636.381 0,212.127 "
    style="fill:#fff6a8" />
  <polygon
    points="367.404,815.684 29.283,620.468 29.283,230.037 367.404,34.822 705.528,230.037 705.528,620.468 "
    transform="matrix(0.93619994,0,0,0.93619994,23.448993,26.132167)"
    style="fill:#000000" />
  <g transform="translate(-8.355325,-2.25393)">
    <path
      d="m 144.69427,261.79744 0,3.58255 -7.16512,0 0,7.16512 -3.58255,0 0,42.99071 3.58255,0 0,7.16512 75.23373,0 0,7.16512 7.16512,0 0,107.47675 0,3.58257 0,7.1651 0,3.58257 0,28.66047 0,3.58255 0,14.33024 0,10.74767 0,107.47677 3.58257,0 0,10.74767 46.57326,0 0,-3.58255 -3.58257,0 0,-7.16512 3.58257,0 0,7.16512 7.16512,0 0,-7.16512 3.58255,0 0,-107.47677 0,-10.74767 0,-14.33024 0,-3.58255 0,-28.66047 0,-3.58257 0,-7.1651 0,-3.58257 0,-103.8942 3.58257,0 0,-3.58255 25.07793,0 0,-7.16512 3.58257,0 0,7.16512 42.99069,0 0,-7.16512 7.16512,0 0,-3.58255 3.58257,0 0,-46.57328 -3.58257,0 0,-7.16512 -7.16512,0 0,-3.58255 -7.1651,0 -3.58257,0 -53.73841,0 -7.16511,0 -3.58257,0 -60.9035,0 -7.16512,0 z m 7.16512,53.73838 7.16512,0 0,3.58257 -7.16512,0 z m 132.55468,3.58257 7.16511,0 0,3.58255 -7.16511,0 z"
      style="fill:#fff6a8" />
    <path
      d="m 424.13388,261.79744 0,3.58255 -21.49534,0 0,10.74769 -3.58257,0 0,3.58255 -3.58255,0 0,7.16512 -7.16512,0 0,3.58257 -3.58257,0 0,14.33023 -3.58255,0 0,132.55466 0,3.58257 0,7.1651 0,3.58257 0,28.66047 0,3.58255 0,14.33024 0,10.74767 0,107.47677 3.58255,0 0,10.74767 28.66048,0 0,-3.58255 3.58255,0 0,3.58255 10.74768,0 0,-3.58255 10.74767,0 0,-7.16512 3.58257,0 0,-107.47677 3.58255,0 0,-10.74767 128.97211,0 0,-3.58255 3.58257,0 0,-10.74769 -3.58257,0 0,-3.58255 3.58257,0 0,-39.40814 -7.16512,0 0,-3.58257 -28.66047,0 0,3.58257 -7.16512,0 0,-3.58257 -17.91279,0 0,3.58257 -46.57326,0 0,7.1651 -14.33023,0 0,-7.1651 -10.74769,0 0,-3.58257 -3.58255,0 0,-100.31163 3.58255,0 0,-7.16512 7.16512,0 0,-7.16512 3.58257,0 0,-3.58255 3.58255,0 0,-3.58257 7.16512,0 0,3.58257 139.71977,0 0,-3.58257 7.16512,0 0,-10.74767 3.58257,0 0,-10.74768 -3.58257,0 0,-3.58255 3.58257,0 0,-17.91281 -3.58257,0 0,-7.16512 -7.16512,0 0,-3.58255 z m -21.49534,17.91279 7.16512,0 0,7.16512 -7.16512,0 z m 10.74767,10.74769 3.58255,0 0,3.58255 -3.58255,0 z m 136.13723,150.46746 7.16511,0 0,7.1651 -7.16511,0 z m -35.82559,7.1651 3.58256,0 0,3.58257 -3.58256,0 z"
      style="fill:#fff6a8" />
  </g>
</svg>
